<?xml version="1.0" encoding="UTF-8" standalone="no"?>
<!-- Created with Inkscape (http://www.inkscape.org/) -->

<svg
   xmlns:dc="http://purl.org/dc/elements/1.1/"
   xmlns:cc="http://creativecommons.org/ns#"
   xmlns:rdf="http://www.w3.org/1999/02/22-rdf-syntax-ns#"
   xmlns:svg="http://www.w3.org/2000/svg"
   xmlns="http://www.w3.org/2000/svg"
   xmlns:sodipodi="http://sodipodi.sourceforge.net/DTD/sodipodi-0.dtd"
   xmlns:inkscape="http://www.inkscape.org/namespaces/inkscape"
   width="28.555664mm"
   height="10.753467mm"
   viewBox="0 0 101.18149 38.102834"
   id="svg2"
   version="1.1"
   inkscape:version="0.91 r13725"
   sodipodi:docname="logo.svg">
  <defs
     id="defs4" />
  <sodipodi:namedview
     id="base"
     pagecolor="#ffffff"
     bordercolor="#666666"
     borderopacity="1.0"
     inkscape:pageopacity="0.0"
     inkscape:pageshadow="2"
     inkscape:zoom="3.959798"
     inkscape:cx="49.459402"
     inkscape:cy="44.512035"
     inkscape:document-units="px"
     inkscape:current-layer="layer1"
     showgrid="false"
     inkscape:window-width="1366"
     inkscape:window-height="705"
     inkscape:window-x="-8"
     inkscape:window-y="-8"
     inkscape:window-maximized="1"
     fit-margin-top="0"
     fit-margin-left="0"
     fit-margin-right="0"
     fit-margin-bottom="0"
     borderlayer="false" />
  <metadata
     id="metadata7">
    <rdf:RDF>
      <cc:Work
         rdf:about="">
        <dc:format>image/svg+xml</dc:format>
        <dc:type
           rdf:resource="http://purl.org/dc/dcmitype/StillImage" />
        <dc:title></dc:title>
      </cc:Work>
    </rdf:RDF>
  </metadata>
  <g
     inkscape:label="Layer 1"
     inkscape:groupmode="layer"
     id="layer1"
     transform="translate(-323.19185,-374.09028)">
    <path
       style="fill:#161616"
       d="m 401.19185,409.22514 c 0,-1.57583 0.83224,-3.93833 1.84942,-5.25 1.75435,-2.26226 1.76187,-2.52771 0.1463,-5.16359 -1.45516,-2.37415 -1.88069,-2.56481 -2.92254,-1.30945 -0.67067,0.80812 -1.81599,1.24037 -2.54514,0.96056 -0.72916,-0.2798 -1.62281,-0.0281 -1.98591,0.55945 -1.16622,1.88699 -5.68269,1.24669 -6.24005,-0.88466 -0.50549,-1.933 -0.53754,-1.93315 -3.15638,-0.0154 -2.88557,2.11311 -7.1457,1.72653 -7.1457,-0.64841 0,-0.76085 -0.675,-1.38337 -1.5,-1.38337 -1.67208,0 -1.94821,-1.1072 -0.63596,-2.55 0.47522,-0.5225 1.40489,-3.2 2.06592,-5.95 1.45609,-6.05751 5.77852,-13.77262 7.39616,-13.2014 2.01758,0.71243 0.97405,6.76655 -2.24076,12.99994 -3.46502,6.71853 -3.73565,8.23794 -1.61244,9.0527 1.32414,0.50811 4.23229,-1.42001 9.99197,-6.62473 1.08069,-0.97656 2.57999,-1.53953 3.33179,-1.25104 0.75179,0.28849 1.97658,0.52453 2.72175,0.52453 0.7971,0 1.48487,1.33793 1.67069,3.25 l 0.31583,3.25 1.68207,-3 c 2.36069,-4.21032 6.75469,-8.65406 7.87349,-7.9626 1.54406,0.95428 1.0977,2.21281 -2.06051,5.80982 -3.23907,3.6891 -3.45489,4.38526 -2.04864,6.60832 0.73975,1.16943 2.00826,0.427 6.4533,-3.77693 4.7735,-4.51457 5.91417,-5.14087 8.31395,-4.56486 1.52977,0.36718 2.85195,0.7168 2.9382,0.77693 0.0862,0.0601 0.29083,1.6908 0.45463,3.62372 0.34692,4.09384 -0.6095,6.11544 -2.54231,5.37375 -0.75176,-0.28847 -1.6639,-0.0438 -2.027,0.54368 -1.17595,1.90272 -5.54913,1.22346 -6.36759,-0.98904 -0.7569,-2.0461 -0.77067,-2.04655 -2.54748,-0.0832 -1.40636,1.55401 -1.55674,2.40327 -0.70676,3.99147 1.54514,2.88713 1.3864,3.63098 -1.50919,7.0722 -3.48913,4.1466 -7.41111,4.25857 -7.41111,0.21159 z m 5.36912,-0.99024 c 1.01359,-1.12 1.41042,-2.55554 1.00123,-3.62189 -0.6131,-1.5977 -0.85216,-1.53985 -2.50187,0.60539 -3.20159,4.16325 -1.90175,6.7761 1.50064,3.0165 z m -10.56912,-11.34462 c 1.42362,-1.42362 1.60419,-4.8 0.2567,-4.8 -0.51881,0 -1.62504,0.97333 -2.45829,2.16297 -2.21125,3.15699 -0.43998,5.2786 2.20159,2.63703 z m 25.2,-2.83518 c 0,-1.08065 -0.42448,-1.96482 -0.9433,-1.96482 -1.31564,0 -4.08623,4.14321 -3.45431,5.16567 0.88457,1.43127 4.39761,-1.12574 4.39761,-3.20085 z m -36.36912,-12.66727 c -0.48813,-0.48813 -3.67977,6.25215 -3.58668,7.57457 0.0243,0.34534 0.95684,-1.10208 2.0723,-3.21649 1.11546,-2.1144 1.79693,-4.07553 1.51438,-4.35808 z m -36.18628,18.52789 c -0.47335,-1.4914 -0.15317,-2.56537 1.02071,-3.42374 0.94073,-0.68787 1.55511,-2.05717 1.36528,-3.04287 -0.2905,-1.50843 -0.99651,-1.20373 -4.45907,1.92449 -4.38174,3.95864 -6.74548,4.50617 -9.72115,2.25178 -1.59951,-1.21179 -1.69772,-1.86159 -0.72628,-4.8051 1.62775,-4.93212 4.85539,-8.15791 6.66221,-6.65838 1.93196,1.60339 1.79996,2.31589 -1.05842,5.71287 -1.35966,1.61587 -2.18466,3.2254 -1.83333,3.57673 1.44121,1.44121 3.63979,0.40619 8.202,-3.86122 6.86889,-6.42505 8.4229,-5.79105 6.14402,2.5066 l -0.95944,3.4934 4.45944,-4.84675 c 5.07604,-5.51691 5.35724,-6.38664 2.20943,-6.8337 -3.53286,-0.50175 -2.8773,-3.39343 0.67447,-2.97512 2.14509,0.25264 3.40506,-0.28037 4.72776,-2 0,0 0.96437,-1.87702 1.8033,-1.46055 0.83893,0.41647 -0.10407,3.29747 -0.10407,3.29747 3.674,3.84654 -0.23932,3.34615 -0.71333,3.86865 -1.04139,1.14793 -3.21023,9.71127 -2.61127,10.31023 0.23363,0.23362 1.11065,-0.14445 1.94894,-0.84017 2.44291,-2.02744 1.75511,0.41435 -0.79029,2.80563 -3.6482,3.4273 -5.03826,2.84063 -4.40773,-1.86028 l 0.54115,-4.03458 -3.82101,3.45205 c -5.90325,5.33323 -7.72107,6.06487 -8.55336,3.44256 z m -20.08794,-10.40689 0.66146,-11.58144 -3.00906,0.6609 c -2.33171,0.51213 -3.00906,0.31328 -3.00906,-0.88337 0,-2.23944 3.20884,-3.61464 8.43426,-3.61464 3.94868,0 4.56574,0.27941 4.56574,2.06739 0,1.66077 -0.42312,1.93309 -2.15127,1.3846 -1.70222,-0.54027 -2.02341,-0.34957 -1.5387,0.91355 0.81157,2.11492 -1.03837,22.88319 -3.71243,22.63279 -0.52042,-0.0487 -0.62408,-4.87153 -0.24094,-11.57978 z"
       id="path3347"
       inkscape:connector-curvature="0"
       sodipodi:nodetypes="csssccssssssssssssscsssssscsscssssccssssssssssssscsscsssssssssscsssszcscssscsccscssssssss" />
  </g>
</svg>
